# xmcd CD database file
#
# Track frame offsets:
#	150
#	22920
#	44850
#	67617
#
# Disc length: 1200 seconds
#
# Revision: 2
# Processed by: cddbd v1.5.1PL0 Copyright (c) Steve Scherf et al.
# Submitted via: CDex 1.51
#
DISCID=2a04ae04
DTITLE=モーニング娘。 - Early Single Box DISC.7 LOVEマシーン
DYEAR=2004
DGENRE=Hello!Project
TTITLE0=LOVEマシーン
TTITLE1=21世紀
TTITLE2=LOVEマシーン (Instrumental)
TTITLE3=LOVEマシーン (Early Unison Version)
EXTD=YEAR: 2004
EXTT0=
EXTT1=
EXTT2=
EXTT3=
PLAYORDER=
